<?xml version="1.0" encoding="utf-8"?>
<!-- Generator: Adobe Illustrator 22.1.0, SVG Export Plug-In . SVG Version: 6.00 Build 0)  -->
<svg version="1.1" id="Capa_1" xmlns="http://www.w3.org/2000/svg" xmlns:xlink="http://www.w3.org/1999/xlink" x="0px" y="0px"
	 viewBox="0 0 506.8 506.8" style="enable-background:new 0 0 506.8 506.8;" xml:space="preserve">
<style type="text/css">
	.st0{fill:#963FFB;}
</style>
<g>
	<g>
		<path class="st0" d="M500.8,118h-10V85.2c0-13.2-10.8-24-24-24c-5.6,0-10.4,2-14.4,4.8c-4.4-8-13.2-13.6-23.2-13.6
			c-14.8,0-26.8,12-26.8,26.8V118H105.6V79.2c0-14.8-12-26.8-26.8-26.8C68.8,52.4,60,58,55.6,66c-4-3.2-8.8-4.8-14.4-4.8
			c-13.2,0-24,10.8-24,24V118H6.4c-3.6,0-6.4,2.8-6.4,6.4s2.8,6.4,6.4,6.4h10.4v32.8c0,13.2,10.8,24,24,24c5.6,0,10.4-2,14.4-4.8
			c4.4,8,13.2,14,23.2,14c14.8,0,26.8-12,26.8-26.8v-38.8h43.2v173.6h-22c-3.6,0-6.4,2.8-6.4,6.4s2.8,6.4,6.4,6.4h56l-10.8,45.6
			c-0.8,2.4-0.8,4.8-0.4,7.6c0,0.4,0,0.4,0,0.8V448c0,3.6,2.8,6.4,6.4,6.4c3.6,0,6.4-2.8,6.4-6.4v-58.8c2.8,1.2,5.6,1.6,9.2,1.6H314
			c3.2,0,6.4-0.8,9.2-2V448c0,3.6,2.8,6.4,6.4,6.4s6.4-2.8,6.4-6.4v-76c0-0.4,0-0.8,0-0.8c0-2.4,0-4.8-0.4-7.2l-10-41.2H384
			c3.6,0,6.4-2.8,6.4-6.4s-2.8-6.4-6.4-6.4h-25.6V131.2H402V170c0,14.8,12,26.8,26.8,26.8c10,0,18.8-5.6,23.2-14
			c4,3.2,8.8,4.8,14.4,4.8c13.2,0,24-10.8,24-24v-32.8h10c3.6,0,6.4-2.8,6.4-6.4C507.2,120.8,504.4,118,500.8,118z M52,163.6
			c0,6.4-4.8,11.2-10.8,11.2S30.4,170,30.4,164V85.2c0-6,4.8-10.8,10.8-10.8S52,79.2,52,85.2V163.6z M92.4,170
			c0,7.6-6,13.6-13.6,13.6s-13.6-6-13.6-13.6v-6V85.2v-6c0-7.6,6-13.6,13.6-13.6s13.6,6,13.6,13.6V170z M321.6,374.4
			c-1.6,2.4-4,3.2-7.2,3.2H193.6c-3.2,0-6-1.2-7.2-3.2c-1.6-2-2-4.8-1.2-8l26.4-110.8c2-7.6,10-14,18-14h49.2c7.6,0,16,6.4,18,14
			l26.8,110.8C323.6,369.6,323.2,372.4,321.6,374.4z M345.6,309.2h-22.8l-13.6-56.8c-3.2-13.6-16.8-24-30.8-24h-49.2
			c-14,0-27.2,10.8-30.8,24L186,304.8h-24.4V131.2h184V309.2L345.6,309.2z M442.8,85.2v78.4v6.4c0,7.6-6,13.6-13.6,13.6
			s-13.6-6-13.6-13.6v-45.2V79.2c0-7.6,6-13.6,13.6-13.6s13.6,6,13.6,13.6V85.2z M477.6,163.6c0,6-4.8,10.8-10.8,10.8
			s-10.8-4.8-10.8-10.8V85.2c0-6,4.8-10.8,10.8-10.8s10.8,4.8,10.8,10.8V163.6z"/>
	</g>
</g>
</svg>
