<?xml version="1.0" encoding="utf-8"?>
<!-- Generator: Adobe Illustrator 22.1.0, SVG Export Plug-In . SVG Version: 6.00 Build 0)  -->
<svg version="1.1" id="Capa_1" xmlns="http://www.w3.org/2000/svg" xmlns:xlink="http://www.w3.org/1999/xlink" x="0px" y="0px"
	 viewBox="0 0 233.6 233.6" style="enable-background:new 0 0 233.6 233.6;" xml:space="preserve">
<style type="text/css">
	.st0{fill:#963FFB;}
</style>
<g>
	<path class="st0" d="M202.8,149.4c1.4,1,1.7,3,0.6,4.4c-8.1,10.6-20.3,16.3-32.7,16.3c-8.6,0-17.3-2.7-24.7-8.3
		c-18-13.6-21.6-39.4-8-57.4c10.2-13.5,27.9-19.4,44.2-14.6c1.6,0.5,2.6,2.2,2.1,3.9c-0.5,1.7-2.2,2.6-3.9,2.1
		c-13.7-4-28.8,1-37.4,12.4c-11.6,15.3-8.5,37.1,6.8,48.7s37.1,8.5,48.7-6.8C199.5,148.6,201.4,148.3,202.8,149.4z M172.8,121.1
		l18.3-24.2c1-1.4,3-1.7,4.4-0.6c1.4,1,1.6,3,0.6,4.4l-18.2,24.1c0.6,0.9,0.9,2,1.1,3.1c0.3,2.2-0.3,4.4-1.6,6.1
		c-1.6,2.1-4,3.3-6.6,3.3c-1.8,0-3.5-0.6-5-1.7c-3.6-2.8-4.3-7.9-1.6-11.6C166.1,121.4,169.7,120.3,172.8,121.1z M172.7,128.7
		c-0.1-0.5-0.4-1-0.8-1.3c-0.4-0.3-0.9-0.4-1.2-0.4c-0.6,0-1.2,0.3-1.6,0.8c-0.7,0.9-0.5,2.2,0.4,2.8c1.4,1,2.3,0.4,2.8-0.4
		C172.7,129.8,172.8,129.3,172.7,128.7z M233.1,117.7c-0.7,2.3-2.3,3.8-4.3,4.3c-0.4,0.1-0.9,0.2-1.3,0.2c-1.4,0-2.9-0.6-4.1-1.7
		l-2.9,0.7c0,0.1,0,0.1,0,0.2c1.9,13.5-1.6,26.9-9.8,37.8c-9.7,12.9-24.5,20.2-40.7,20.2c-11.2,0-21.8-3.6-30.7-10.3
		c-9.6-7.3-15.9-17.3-18.6-28.1c-1.3,1.4-2.7,2.8-4,4.2c2,2.6,3.4,5.4,4.1,8.2c1,4.1,0.2,7.7-2.2,10c-2.8,2.7-7.5,3-12.2,0.9
		c-2.5,3.8-5.9,7.9-10,11.8c-8.3,7.9-17,12.8-22.6,12.8c-2.6,0-4.2-1.1-5.1-2c-5.3-5.6,2.7-17.9,12.3-27.1c4-3.8,8.3-7,12.3-9.3
		c-1.9-4.9-1.4-9.4,1.5-12.2c3.9-3.7,11.4-2.5,17.5,2.5c2.5-2.4,4.9-4.9,7.1-7.5l0,0c-1.1-12.2,2.1-24.9,10-35.4
		c2.9-3.8,6.2-7,9.8-9.8c0.3-5.5-0.3-10.5-1.8-15C135.6,78.5,132,84,127,88.7c-6.9,6.5-15.1,10.4-22,10.4c-4,0-7.3-1.3-9.6-3.7
		c-6.5-6.9-2.8-20.6,8.4-31.3c5.3-5,11.4-8.3,17-9.6c-18.7-8.4-47.5-0.5-70.7,20.8c2.7,3.7,4.2,7.7,4.1,11.2c-0.1,2.6-1,4.8-2.6,6.3
		c-2.8,2.7-7.5,3-12.2,0.9c-2.5,3.8-5.9,7.9-10,11.8c-8.3,7.9-17,12.8-22.6,12.8c-2.6,0-4.2-1.1-5.1-2c-5.3-5.6,2.7-18,12.3-27.1
		c4-3.8,8.3-7,12.3-9.3c-1.9-4.9-1.4-9.4,1.5-12.2c4-3.8,11.8-2.4,18.1,3c30.2-27.8,69.9-34,89.2-13.7c0.1,0.1,0.2,0.2,0.3,0.3
		c0,0,0.1,0,0.1,0.1c0.1,0.1,0.1,0.2,0.1,0.2c6.2,6.9,9.6,15.9,9.9,26.4c7.4-4.1,15.7-6.3,24.5-6.3s17.2,2.3,24.7,6.5l3.1-4.2
		c-1.3-3.1-1.2-6.1,0.6-8.4c1.6-2.1,4.3-3.2,7.5-2.9c2.7,0.2,5.5,1.4,8,3.3c5.6,4.3,7.7,10.8,4.6,14.8c-1.7,2.3-4.5,3.2-7.9,2.8
		l-3.3,4.4c4.3,4.6,7.6,9.9,9.9,15.7l3.2-0.8c0.8-2,2.2-3.4,4.1-3.9c1.4-0.3,3-0.1,4.4,0.7c2,1.2,3.5,3.5,4.2,6.3
		C233.7,113.9,233.7,116,233.1,117.7z M48,86.2c0.1-2.7-1.7-6.5-4.6-9.5c-3-3.1-6.7-5.2-9.4-5.2c-0.8,0-1.5,0.2-1.9,0.6
		c-1,1-1,3.9,1,7.5c0.4,0.8,0.5,1.7,0.3,2.5c-0.3,0.8-0.9,1.5-1.6,1.9c-4.1,1.9-9,5.4-13.4,9.6c-10,9.4-12.6,16.9-12,18.3l0.5-0.1
		c3.3,0,10.6-3.8,18.3-11.1c4.5-4.3,8.2-8.9,10.3-12.9c0.4-0.8,1.1-1.3,2-1.5c0.8-0.2,1.7-0.1,2.5,0.4c3,1.9,6.3,2.5,7.4,1.4
		C47.8,87.6,48,86.8,48,86.2z M131.3,62.1c-0.2-0.2-0.3-0.5-0.5-0.7c-1.1-1.1-2.8-1.7-4.9-1.7c-5.3,0-12.1,3.3-17.8,8.7
		C99,77,96.5,87.2,100,90.8c1.1,1.2,2.8,1.8,5.1,1.8c5.3,0,12.1-3.3,17.8-8.7c4.4-4.1,7.5-8.9,9-13.5
		C132.8,66.9,132.6,64,131.3,62.1z M114.7,154.8c-0.6-2.4-2.2-5.2-4.4-7.5c-3-3.1-6.7-5.1-9.4-5.1c-0.8,0-1.5,0.2-1.9,0.6
		c-1,1-1,3.9,1,7.5c0.4,0.8,0.5,1.7,0.3,2.5c-0.3,0.8-0.9,1.5-1.6,1.9c-4.1,1.9-8.9,5.4-13.4,9.6c-9.8,9.3-12.5,16.7-12,18.3l0,0
		c0.1,0,0.2,0,0.5,0c3.3,0,10.7-3.8,18.3-11.1c4.5-4.3,8.2-8.8,10.3-12.9c0.4-0.8,1.1-1.3,2-1.5c0.8-0.2,1.7-0.1,2.5,0.4
		c3,1.9,6.3,2.5,7.4,1.4C114.9,158.1,115.1,156.6,114.7,154.8z M204,82l-4,5.3c0.2,0.2,0.5,0.3,0.7,0.5c0.7,0.5,1.4,1.1,2,1.7
		l4.1-5.4c0.8-1,2.1-1.5,3.4-1.1c1.7,0.5,3,0.3,3.3-0.1c0.6-0.8-0.3-3.7-3.4-6.1c-1.5-1.2-3.3-1.9-4.8-2.1c-0.9-0.1-1.7,0.1-2,0.4
		c-0.4,0.4-0.2,1.7,0.8,3.2C204.9,79.5,204.8,80.9,204,82z M214.3,122.3c-1.7-11.8-7.8-22.3-17.3-29.5c-7.8-5.9-17.2-9.1-27-9.1
		c-14.2,0-27.2,6.5-35.7,17.7c-14.9,19.7-11,47.8,8.7,62.7c7.8,5.9,17.2,9.1,27,9.1c14.2,0,27.2-6.5,35.7-17.7
		C212.9,145.9,215.9,134.1,214.3,122.3z M227.1,113.3c-0.2-1-0.6-1.6-1-2c0,0.1,0,0.2-0.1,0.4c-0.1,1-0.7,1.8-1.5,2.3
		c0.9,0.1,1.8,0.5,2.4,1.3c0.1,0.1,0.2,0.2,0.2,0.3C227.3,115.1,227.4,114.3,227.1,113.3z"/>
</g>
</svg>
