<?xml version="1.0" encoding="utf-8"?>
<!-- Generator: Adobe Illustrator 22.1.0, SVG Export Plug-In . SVG Version: 6.00 Build 0)  -->
<svg version="1.1" id="Capa_1" xmlns="http://www.w3.org/2000/svg" xmlns:xlink="http://www.w3.org/1999/xlink" x="0px" y="0px"
	 viewBox="0 0 419.3 283" style="enable-background:new 0 0 419.3 283;" xml:space="preserve">
<style type="text/css">
	.st0{fill:#963FFB;}
</style>
<path class="st0" d="M81.8,230.2V204c0-5,4-9,9-9s9,4,9,9v17.2h174.3l-43-83.8c-2.3-4.4-0.5-9.8,3.9-12.1s9.8-0.5,12.1,3.9
	l49.7,96.9c1.4,2.8,1.3,6.1-0.3,8.8s-4.5,4.3-7.7,4.3h-198C85.8,239.2,81.8,235.2,81.8,230.2z M414.5,260.7H13.3c-5,0-9,4-9,9
	s4,9,9,9h401.3c5,0,9-4,9-9S419.5,260.7,414.5,260.7z M135.8,45.7c0-22.7,18.5-41.2,41.2-41.2s41.2,18.5,41.2,41.2
	S199.7,86.9,177,86.9S135.8,68.4,135.8,45.7z M153.8,45.7c0,12.8,10.4,23.2,23.2,23.2s23.2-10.4,23.2-23.2S189.8,22.5,177,22.5
	S153.8,32.9,153.8,45.7z M87.1,178.5c1.7,1.5,3.8,2.3,6,2.3c2.5,0,5-1,6.7-3l15.4-17.4L218.8,108h128.7c3,0,5.9-1.5,7.5-4.1
	L369.4,82c2.7-4.2,1.6-9.7-2.6-12.5c-4.2-2.7-9.7-1.6-12.5,2.6L342.5,90h-126c-1.4,0-2.8,0.3-4.1,1l-106.9,54
	c-1,0.5-1.9,1.2-2.7,2.1l-16.6,18.7C82.9,169.5,83.3,175.2,87.1,178.5z"/>
</svg>
