<?xml version="1.0" encoding="utf-8"?>
<!-- Generator: Adobe Illustrator 22.1.0, SVG Export Plug-In . SVG Version: 6.00 Build 0)  -->
<svg version="1.1" id="Capa_1" xmlns="http://www.w3.org/2000/svg" xmlns:xlink="http://www.w3.org/1999/xlink" x="0px" y="0px"
	 viewBox="0 0 461.3 461.3" style="enable-background:new 0 0 461.3 461.3;" xml:space="preserve">
<style type="text/css">
	.st0{fill:#963FFB;}
</style>
<g>
	<g>
		<path class="st0" d="M263.6,353.7H248l-29.6-20c4.4-8.8,7.2-18.4,7.2-28.8c0-34-28-62-62-62s-62,28-62,62s28,62,62,62
			c19.2,0,36-8.8,47.6-22l13.6,9.2H220c-3.6,0-6.4,2.8-6.4,6.4s2.8,6.4,6.4,6.4h44c3.6,0,6.4-2.8,6.4-6.4S267.2,353.7,263.6,353.7z
			 M207.2,326.5l-40-26.8c-3.2-2-7.2-1.2-9.2,1.6c-2,3.2-1.2,7.2,1.6,9.2l40,26.8c-8.4,10-21.6,16.4-36,16.4
			c-26.8,0-48.8-22-48.8-48.8s22-48.8,48.8-48.8s48.8,22,48.8,48.8C212.4,312.5,210.4,320.1,207.2,326.5z"/>
	</g>
</g>
<g>
	<g>
		<path class="st0" d="M461.2,43.7c-0.8-3.6-3.6-5.6-6.8-5.6H309.6c-3.6,0-6.4,2.8-6.4,6.4c0,3.6,2.8,6.4,6.4,6.4h135.2
			c-2,3.6-4.8,9.2-9.6,16.8c-14,22.8-30.4,21.6-30.8,21.6s-0.4,0-0.8,0h-40.8c-2.8,0-5.6,2-6.4,4.8l-30.8,120
			c-3.6-0.4-7.6-0.8-11.2-0.8h-142l-32.8-80h32.8c12.8,0,23.2-10.4,23.2-23.2s-10.4-23.2-23.2-23.2h-78c-12.8,0-23.2,10.4-23.2,23.2
			s10.4,23.2,23.2,23.2h30.8l32.8,80h-12.8c-47.6,0-86,41.2-86,91.6c0,50.8,38.8,91.6,86,91.6h169.2c47.6,0,86-41.2,86-91.6
			c0-41.6-26-76.8-62-88L368,102.5h35.2c4,0.4,26,0.8,43.2-27.6C462,48.9,461.6,45.7,461.2,43.7z M94.4,120.1c-5.6,0-10-4.4-10-10
			s4.4-10,10-10H172c5.6,0,10,4.4,10,10s-4.4,10-10,10H94.4z M387.2,304.9c0,43.2-32.8,78.8-72.8,78.8H145.2
			c-40.4,0-72.8-35.2-72.8-78.8c0-43.2,32.8-78.8,72.8-78.8h169.2C354.4,226.1,387.2,261.7,387.2,304.9z"/>
	</g>
</g>
<g>
	<g>
		<path class="st0" d="M454.4,410.5H6.4c-3.6,0-6.4,2.8-6.4,6.4s2.8,6.4,6.4,6.4h448c3.6,0,6.4-2.8,6.4-6.4
			C461.2,413.7,458,410.5,454.4,410.5z"/>
	</g>
</g>
<g>
	<g>
		<path class="st0" d="M318.8,243.3H258c-3.6-0.4-6.4,2.8-6.4,6.4s2.8,6.4,6.4,6.4h60.8c3.6,0,6.4-2.8,6.4-6.4
			C325.2,246.1,322.4,243.3,318.8,243.3z"/>
	</g>
</g>
</svg>
