<?xml version="1.0" encoding="utf-8"?>
<!-- Generator: Adobe Illustrator 22.1.0, SVG Export Plug-In . SVG Version: 6.00 Build 0)  -->
<svg version="1.1" id="Capa_1" xmlns="http://www.w3.org/2000/svg" xmlns:xlink="http://www.w3.org/1999/xlink" x="0px" y="0px"
	 viewBox="0 0 400.8 400.8" style="enable-background:new 0 0 400.8 400.8;" xml:space="preserve">
<style type="text/css">
	.st0{fill:#7A4F9D;}
</style>
<g>
	<g>
		<path class="st0" d="M323.2,176.8c5.2-14.4,8.4-29.6,8.4-45.6C331.6,58.8,272.8,0,200.4,0S69.2,58.8,69.2,131.2
			c0,15.6,2.8,30.8,8.4,45.6C59.2,200,48,228.8,48,260c0,77.6,68.4,140.8,152.4,140.8S352.8,337.6,352.8,260
			C352.8,228.8,342,200,323.2,176.8z M200.4,13.2c65.2,0,118,52.8,118,118c0,11.6-1.6,23.2-5.2,34c-4.8-4.8-10-9.6-15.6-14
			c1.2-6.8,2-13.6,2-20.4c0.4-54.4-44.4-99.2-99.2-99.2s-99.6,44.8-99.6,99.6c0,6.8,0.8,13.6,2,20.4c-5.6,4.4-10.8,8.8-15.6,14
			c-3.2-11.2-4.8-22.8-4.8-34.4C82.4,66,135.2,13.2,200.4,13.2z M286.8,131.2c0,4-0.4,8-0.8,12c-24.4-15.2-53.6-24.4-85.6-24.4
			s-61.2,8.8-85.6,24.4c-0.4-4-0.8-8-0.8-12c0-47.6,38.8-86.4,86.4-86.4C248,44.8,286.8,83.6,286.8,131.2z M200.4,387.6
			c-76.8,0-139.2-57.2-139.2-128c0-70.4,62.4-128,139.2-128s139.2,57.2,139.2,128S277.2,387.6,200.4,387.6z"/>
	</g>
</g>
<g>
	<g>
		<path class="st0" d="M200.4,156.8c-61.2,0-111.2,46-111.2,102.8c0,3.6,2.8,6.4,6.4,6.4s6.4-2.8,6.4-6.4c0-49.6,44-90,98-90
			c3.6,0,6.4-2.8,6.4-6.4C206.8,160,204,156.8,200.4,156.8z"/>
	</g>
</g>
</svg>
