<?xml version="1.0" encoding="utf-8"?>
<!-- Generator: Adobe Illustrator 22.1.0, SVG Export Plug-In . SVG Version: 6.00 Build 0)  -->
<svg version="1.1" id="Capa_1" xmlns="http://www.w3.org/2000/svg" xmlns:xlink="http://www.w3.org/1999/xlink" x="0px" y="0px"
	 viewBox="0 0 512 512" style="enable-background:new 0 0 512 512;" xml:space="preserve">
<style type="text/css">
	.st0{fill:#963FFB;}
</style>
<g>
	<g>
		<g>
			<path class="st0" d="M488.4,338v-42.6H436v-19.8h-67.4V338h-43v15h43v17H142.3v-17h168.4v-15H142.3v-62.4H74.9v19.8H22.5V338H0
				v46.9h22.5v42.6h52.4v19.8h67.4v-62.4h226.3v62.4H436v-19.8h52.4v-42.6H512V338H488.4z M22.5,369.9H15v-17h7.5V369.9z
				 M74.9,412.5H37.4V310.4h37.5V412.5z M127.3,432.3L127.3,432.3H89.9V290.5h37.5L127.3,432.3L127.3,432.3z M421,432.3h-37.5V290.5
				H421V432.3z M473.5,412.5H436V310.4h37.5V412.5z M497,369.9h-7.5v-17h7.5V369.9z"/>
			<rect x="48.7" y="322.5" class="st0" width="15" height="15"/>
			<rect x="48.7" y="372.4" class="st0" width="15" height="15"/>
			<rect x="447.3" y="317.8" class="st0" width="15" height="15"/>
			<rect x="390.7" y="384.7" class="st0" width="15" height="35.3"/>
			<path class="st0" d="M196.5,309l2,1.5h40.8v-15h-35.8c-20.3-16-32-39.9-32-65.9c0-21.4,8.1-41.8,22.7-57.4l2.5-2.6l-9-62.1
				l24.1-27.8h87.3l24.1,27.8l-9,62.1l2.5,2.6c14.7,15.6,22.7,36,22.7,57.4c0,26-11.6,49.9-32,65.9h-53.1v15h58.1l2-1.5
				c25-18.6,39.9-48.3,39.9-79.4c0-24-8.6-46.9-24.3-64.9l9-61.8l-33-38.1H205l-33,38.1l9,61.8c-15.7,18-24.3,40.9-24.3,64.9
				C156.6,260.7,171.5,290.4,196.5,309z"/>
			<path class="st0" d="M225.5,151.3c9.6-3.7,19.6-5.5,30-5.5s20.4,1.9,29.9,5.5l8.7,3.3l5.9-40.3l-10.9-12.6h-67.2L211,114.3
				l3.7,25.4c-3.4,1.6-6.8,3.3-10,5.2l7.7,12.8c4.1-2.5,8.5-4.6,12.9-6.3L225.5,151.3z M228.7,116.6h53.6l2,2.3l-2.3,15.5
				c-8.6-2.4-17.5-3.6-26.5-3.6s-17.9,1.2-26.5,3.6l-2.3-15.5L228.7,116.6z"/>
		</g>
	</g>
</g>
</svg>
